HIERARCHY
ROOT Hips
{
  OFFSET 0.0 0.0 0.0
  CHANNELS 6 Xposition Yposition Zposition Zrotation Yrotation Xrotation
  JOINT LHipJoint
  {
    OFFSET 0.0 0.0 0.0
    CHANNELS 3 Zrotation Yrotation Xrotation
    JOINT LeftUpLeg
    {
      OFFSET 1.363059998 -1.794630051 0.839290023
      CHANNELS 3 Zrotation Yrotation Xrotation
      JOINT LeftLeg
      {
        OFFSET 2.448110104 -6.726130009 0.0
        CHANNELS 3 Zrotation Yrotation Xrotation
        JOINT LeftFoot
        {
          OFFSET 2.562200069 -7.039589882 0.0
          CHANNELS 3 Zrotation Yrotation Xrotation
          JOINT LeftToeBase
          {
            OFFSET 0.157639995 -0.433109999 2.322550058
            CHANNELS 3 Zrotation Yrotation Xrotation
            End Site
            {
              OFFSET 0.0 -0.0 1.189659953
            }
          }
        }
      }
    }
  }
  JOINT RHipJoint
  {
    OFFSET 0.0 0.0 0.0
    CHANNELS 3 Zrotation Yrotation Xrotation
    JOINT RightUpLeg
    {
      OFFSET -1.305520058 -1.794630051 0.839290023
      CHANNELS 3 Zrotation Yrotation Xrotation
      JOINT RightLeg
      {
        OFFSET -2.54253006 -6.985549927 0.0
        CHANNELS 3 Zrotation Yrotation Xrotation
        JOINT RightFoot
        {
          OFFSET -2.568259954 -7.056230068 0.0
          CHANNELS 3 Zrotation Yrotation Xrotation
          JOINT RightToeBase
          {
            OFFSET -0.164729998 -0.452589989 2.363149881
            CHANNELS 3 Zrotation Yrotation Xrotation
            End Site
            {
              OFFSET -0.0 -0.0 1.21081996
            }
          }
        }
      }
    }
  }
  JOINT LowerBack
  {
    OFFSET 0.0 0.0 0.0
    CHANNELS 3 Zrotation Yrotation Xrotation
    JOINT Spine
    {
      OFFSET 0.028270001 2.035589933 -0.193379998
      CHANNELS 3 Zrotation Yrotation Xrotation
      JOINT Spine1
      {
        OFFSET 0.05672 2.04885006 -0.042750001
        CHANNELS 3 Zrotation Yrotation Xrotation
        JOINT Neck
        {
          OFFSET 0.0 0.0 0.0
          CHANNELS 3 Zrotation Yrotation Xrotation
          JOINT Neck1
          {
            OFFSET -0.054170001 1.74624002 0.172020003
            CHANNELS 3 Zrotation Yrotation Xrotation
            JOINT Head
            {
              OFFSET 0.10407 1.761360049 -0.123970002
              CHANNELS 3 Zrotation Yrotation Xrotation
              End Site
              {
                OFFSET 0.0372 1.770439982 -0.062410001
              }
            }
          }
        }
        JOINT LeftShoulder
        {
          OFFSET 0.0 0.0 0.0
          CHANNELS 3 Zrotation Yrotation Xrotation
          JOINT LeftArm
          {
            OFFSET 3.362410069 1.200889945 -0.311210006
            CHANNELS 3 Zrotation Yrotation Xrotation
            JOINT LeftForeArm
            {
              OFFSET 4.982999802 -0.0 -0.0
              CHANNELS 3 Zrotation Yrotation Xrotation
              JOINT LeftHand
              {
                OFFSET 3.483560085 -0.0 -0.0
                CHANNELS 3 Zrotation Yrotation Xrotation
                JOINT LeftFingerBase
                {
                  OFFSET 0.0 0.0 0.0
                  CHANNELS 3 Zrotation Yrotation Xrotation
                  JOINT LeftHandIndex1
                  {
                    OFFSET 0.715260029 -0.0 -0.0
                    CHANNELS 3 Zrotation Yrotation Xrotation
                    End Site
                    {
                      OFFSET 0.576659977 -0.0 -0.0
                    }
                  }
                }
                JOINT LThumb
                {
                  OFFSET 0.0 0.0 0.0
                  CHANNELS 3 Zrotation Yrotation Xrotation
                  End Site
                  {
                    OFFSET 0.585470021 -0.0 0.585470021
                  }
                }
              }
            }
          }
        }
        JOINT RightShoulder
        {
          OFFSET 0.0 0.0 0.0
          CHANNELS 3 Zrotation Yrotation Xrotation
          JOINT RightArm
          {
            OFFSET -3.136600018 1.374050021 -0.404650003
            CHANNELS 3 Zrotation Yrotation Xrotation
            JOINT RightForeArm
            {
              OFFSET -5.241899967 -0.0 -0.0
              CHANNELS 3 Zrotation Yrotation Xrotation
              JOINT RightHand
              {
                OFFSET -3.444169998 -0.0 -0.0
                CHANNELS 3 Zrotation Yrotation Xrotation
                JOINT RightFingerBase
                {
                  OFFSET 0.0 0.0 0.0
                  CHANNELS 3 Zrotation Yrotation Xrotation
                  JOINT RightHandIndex1
                  {
                    OFFSET -0.622529984 -0.0 -0.0
                    CHANNELS 3 Zrotation Yrotation Xrotation
                    End Site
                    {
                      OFFSET -0.501900017 -0.0 -0.0
                    }
                  }
                }
                JOINT RThumb
                {
                  OFFSET 0.0 0.0 0.0
                  CHANNELS 3 Zrotation Yrotation Xrotation
                  End Site
                  {
                    OFFSET -0.509559989 -0.0 0.509559989
                  }
                }
              }
            }
          }
        }
      }
    }
  }
}
MOTION
Frames: 6
Frame Time: 0.0083333
-20.096899033 22.265600204 22.488502502 -3.689308882 -6.476351738 -1.149908781 -131.268997192 -0.890231431 -58.667835236 -47.580989838 -16.700710297 59.813087463 4.1869e-05 3.5167e-05 -29.875865936 -169.129013062 -21.277837753 -121.178215027 6.697481155 7.662481785 -18.259428024 132.275405884 -0.065511771 -60.897190094 42.039031982 -6.416292667 63.792015076 -1.9337e-05 -6.2299e-05 -33.381004333 171.40385437 41.709133148 -110.480873108 -2.469497442 -4.78876543 -6.410526276 1.966692209 0.706436455 5.321125984 2.634386301 1.129362822 4.748281956 3.25233674 0.928713977 -4.277802944 -4.546683311 -3.168773413 -3.847818613 0.987938523 -3.288258553 -3.480730772 4.596837997 -2.334438324 5.452494621 -70.274932861 -5.880146027 1.596463084 -107.195655823 -36.878108978 -0.359710246 9.834078789 -4.801494598 17.509101868 90.0 -1.638199925 0.0 -68.200004578 7.292016029 6.722287178 -7.124996185 0.0 0.0 -98.280967712 37.956253052 -38.761772156 66.170303345 7.95058012 1.248411179 110.416481018 33.25415802 1.922255397 -9.744508743 4.706031799 17.339876175 -90.0 -6.290599823 0.0 74.266807556 20.16954422 -10.619972229 7.124996185 -0.0 0.0 97.921333313 19.917970657 -39.973327637 
-20.100799561 22.198099136 22.613502502 -3.207122087 -6.780958652 -1.619920015 -131.268997192 -0.890231431 -58.667835236 -46.846321106 -15.27646637 60.565338135 4.2019e-05 3.5292e-05 -29.011054993 -170.107208252 -25.116455078 -117.145721436 6.647544861 7.605652332 -18.106704712 132.275405884 -0.065511771 -60.897190094 41.472866058 -5.825157642 64.130775452 -3.864e-05 -6.6862e-05 -31.472644806 171.688247681 41.718299866 -109.731925964 -2.232583761 -4.710578442 -5.788793087 1.579175949 1.024798989 5.645880699 2.479881525 1.486919999 4.908868313 3.223027229 1.098594189 -4.295253754 -3.818815947 -3.352310419 -5.051304817 0.335217535 -3.610742331 -2.682714462 4.228027344 -2.420013428 5.869904995 -70.274932861 -5.880146027 1.596463084 -105.727279663 -37.482635498 -2.367390871 10.327487946 -5.350110531 18.447341919 90.0 -0.066599995 0.0 -67.4193573 6.800805569 6.635688305 -7.124996185 0.0 0.0 -97.38419342 37.626461029 -38.305912018 66.170303345 7.95058012 1.248411179 111.002731323 34.116230011 1.061774254 -10.835460663 5.956606388 19.424776077 -89.999992371 -9.631299019 -1.299e-06 73.412124634 20.333059311 -11.346409798 7.124996185 -0.0 0.0 97.335983276 20.294046402 -39.867519379 
-20.107299805 22.25909996 22.73500061 -3.52236867 -6.568686485 -1.32147634 -131.268997192 -0.890231431 -58.667835236 -47.346485138 -16.301626205 59.887672424 -9.693e-06 -1.6818e-05 -29.538406372 -169.417312622 -22.865077972 -119.916030884 6.2721591 7.19848156 -16.971588135 132.275405884 -0.065511771 -60.897190094 41.83379364 -6.260117531 63.994529724 -6.0281e-05 -6.9565e-05 -32.732158661 171.609619141 41.566814423 -109.968315125 -2.667792797 -4.860626221 -6.932807922 1.840615034 0.84230572 5.543989658 2.56784153 1.305122137 4.722755909 3.210152626 1.016032815 -4.430299282 -4.211520672 -3.209745884 -4.214018345 0.700181842 -3.393014669 -2.950453281 4.437516689 -2.361035824 5.662987232 -70.274932861 -5.880146027 1.596463084 -106.560112 -37.341754913 -1.352388978 9.99028492 -4.970998764 17.80506897 90.000007629 -0.838499963 0.0 -67.911018372 7.03249073 6.625146866 -7.124996185 0.0 0.0 -97.951858521 37.683364868 -38.660003662 66.170303345 7.95058012 1.248411179 110.699661255 33.542938232 1.869883657 -10.078131676 5.068070412 17.971982956 -90.0 -7.351100445 0.0 74.296394348 20.893695831 -10.871995926 7.124996185 -0.0 0.0 98.055511475 21.065912247 -39.365589142 
-20.114299774 22.23500061 22.863300323 -3.343267441 -6.72146368 -1.515758872 -131.268997192 -0.890231431 -58.667835236 -47.154682159 -15.805715561 60.202331543 3.699e-06 -7.41e-06 -29.255554199 -169.775253296 -24.132986069 -118.43863678 6.266232967 7.192379475 -16.953941345 132.275405884 -0.065511771 -60.897190094 41.69688797 -6.009449959 64.061981201 -4.0518e-05 -3.442e-05 -32.095058441 171.598922729 41.572223663 -109.995315552 -2.602753401 -4.836391449 -6.761288643 1.680112004 0.957553029 5.726693153 2.539236069 1.433218837 4.726248264 3.237178802 1.086601138 -4.532423973 -4.130376339 -3.26906848 -4.445011616 0.579726517 -3.471483469 -2.815672398 4.375333786 -2.388294935 5.739374638 -70.274932861 -5.880146027 1.596463084 -106.227050781 -37.68038559 -1.799970627 10.193473816 -5.197255135 18.191514969 90.0 -0.391200036 0.0 -67.512687683 6.886211872 6.672020435 -7.124996185 0.0 0.0 -97.489097595 37.719642639 -38.334480286 66.170303345 7.95058012 1.248411179 110.86000061 34.073883057 1.495922327 -10.466364861 5.511683464 18.713363647 -90.0 -8.619099617 0.0 73.765991211 20.95866394 -11.313601494 7.124996185 -0.0 0.0 97.690742493 21.242036819 -39.33089447 
-20.115098953 22.148099899 22.983501434 -3.524008989 -6.826343536 -1.569822788 -131.268997192 -0.890231431 -58.667835236 -46.635631561 -15.924586296 60.71446228 1.8941e-05 -1.8897e-05 -28.731683731 -170.351638794 -26.342861176 -116.196807861 6.596448421 7.548220634 -17.950553894 132.275405884 -0.065511771 -60.897190094 41.061649323 -6.647368908 64.225997925 -5.0114e-05 -3.9377e-05 -30.844034195 171.78793335 41.843643188 -109.447372437 -1.662042975 -4.555773735 -4.29953146 1.675778389 0.592719972 5.695436478 2.907937288 0.902899921 4.708949089 3.745350599 0.894925833 -4.54156065 -4.590250969 -2.97428894 -4.437445164 0.137549028 -2.984573364 -2.657355547 4.381229877 -2.155830145 5.77039957 -70.274932861 -5.880146027 1.596463084 -107.461715698 -37.592979431 0.014285511 10.501784325 -5.553405285 18.781391144 90.0 0.221300006 0.0 -67.385505676 6.80943203 6.658736229 -7.124996185 0.0 0.0 -97.343292236 37.671150208 -38.258728027 66.170303345 7.95058012 1.248411179 109.287483215 35.203453064 -1.327190876 -11.130355835 6.329219818 19.99811554 -90.0 -10.578100204 0.0 73.44228363 19.83241272 -11.119322777 7.124996185 -0.0 0.0 97.288871765 19.472848892 -40.27173996 
-20.118999481 22.198099136 23.108501434 -3.207122087 -6.780958652 -1.619920015 -131.268997192 -0.890231431 -58.667835236 -46.846321106 -15.27646637 60.565338135 4.2019e-05 3.5292e-05 -29.011054993 -170.107208252 -25.116455078 -117.145721436 6.647544861 7.605652332 -18.106704712 132.275405884 -0.065511771 -60.897190094 41.472866058 -5.825157642 64.130775452 -3.864e-05 -6.6862e-05 -31.472644806 171.688247681 41.718299866 -109.731925964 -2.232583761 -4.710578442 -5.788793087 1.579175949 1.024798989 5.645880699 2.479881525 1.486919999 4.908868313 3.223027229 1.098594189 -4.295253754 -3.818815947 -3.352310419 -5.051304817 0.335217535 -3.610742331 -2.682714462 4.228027344 -2.420013428 5.869904995 -70.274932861 -5.880146027 1.596463084 -105.727279663 -37.482635498 -2.367390871 10.327487946 -5.350110531 18.447341919 90.0 -0.066599995 0.0 -67.4193573 6.800805569 6.635688305 -7.124996185 0.0 0.0 -97.38419342 37.626461029 -38.305912018 66.170303345 7.95058012 1.248411179 111.002731323 34.116230011 1.061774254 -10.835460663 5.956606388 19.424776077 -89.999992371 -9.631299019 -1.299e-06 73.412124634 20.333059311 -11.346409798 7.124996185 -0.0 0.0 97.335983276 20.294046402 -39.867519379 
